<?xml version="1.0" standalone="no"?>
<!DOCTYPE svg PUBLIC "-//W3C//DTD SVG 20010904//EN"
 "http://www.w3.org/TR/2001/REC-SVG-20010904/DTD/svg10.dtd">
<svg version="1.0" xmlns="http://www.w3.org/2000/svg"
 width="217.000000pt" height="218.000000pt" viewBox="0 0 217.000000 218.000000"
 preserveAspectRatio="xMidYMid meet">

<g transform="translate(0.000000,218.000000) scale(0.100000,-0.100000)"
fill="#1877f2" stroke="none">
<path d="M945 2119 c-408 -56 -746 -348 -859 -741 -109 -377 -1 -770 285
-1042 138 -131 300 -220 472 -259 l67 -15 0 364 0 364 -135 0 -135 0 0 150 0
150 135 0 135 0 0 133 c0 224 29 317 125 406 85 77 142 95 300 94 72 0 148 -5
170 -10 l40 -9 3 -131 3 -131 -98 -4 c-170 -7 -192 -33 -201 -225 l-5 -123
150 0 150 0 -17 -102 c-10 -57 -21 -124 -24 -151 l-7 -47 -125 0 -124 0 0
-365 0 -365 33 7 c17 3 68 17 112 31 341 105 605 383 696 735 27 104 37 306
19 415 -68 428 -392 769 -815 858 -90 19 -261 25 -350 13z"/>
</g>
</svg>
