<svg width="84" height="30" viewBox="0 0 84 30" fill="none" xmlns="http://www.w3.org/2000/svg">
<path d="M0 2C0 0.89543 0.895431 0 2 0H82C83.1046 0 84 0.895431 84 2V28C84 29.1046 83.1046 30 82 30H2C0.895433 30 0 29.1046 0 28V2Z" fill="#3B5998"/>
<path d="M26.3333 14.9998C26.3333 10.397 22.6028 6.6665 18 6.6665C13.3971 6.6665 9.66663 10.397 9.66663 14.9998C9.66663 19.16 12.7135 22.6073 16.6979 23.2323V17.4087H14.582V14.9998H16.6979V13.1639C16.6979 11.0757 17.9414 9.92171 19.8457 9.92171C20.7571 9.92171 21.7109 10.0845 21.7109 10.0845V12.1353H20.6595C19.6243 12.1353 19.302 12.7782 19.302 13.4373V14.9998H21.6132L21.2438 17.4087H19.302V23.2323C23.2864 22.6073 26.3333 19.16 26.3333 14.9998Z" fill="white"/>
<path d="M36.256 10.094L35.458 11.298C36.326 11.788 37.824 12.782 38.538 13.3L39.364 12.096C38.706 11.62 37.124 10.584 36.256 10.094ZM33.946 20.076L34.772 21.518C36.046 21.28 38.006 20.608 39.42 19.782C41.688 18.466 43.634 16.674 44.88 14.77L44.04 13.286C42.906 15.274 41.016 17.15 38.678 18.48C37.208 19.292 35.5 19.81 33.946 20.076ZM34.128 13.272L33.33 14.476C34.226 14.952 35.71 15.904 36.452 16.436L37.264 15.19C36.606 14.728 35.01 13.748 34.128 13.272ZM54.186 19.838V14.966H56.762C57.084 14.966 57.476 14.98 57.798 15.008V13.608C57.49 13.65 57.112 13.678 56.762 13.678H50.336C50.084 13.678 49.622 13.65 49.314 13.608V15.008C49.608 14.98 50.084 14.966 50.35 14.966H52.744V19.838H49.678C49.356 19.838 48.964 19.796 48.614 19.754V21.21C48.978 21.182 49.356 21.168 49.678 21.168H57.42C57.658 21.168 58.12 21.182 58.414 21.21V19.754C58.134 19.796 57.784 19.838 57.42 19.838H54.186ZM66.936 13.398C67.006 13.804 67.02 14.14 67.02 14.518C67.02 16.842 66.698 18.606 64.696 19.894C64.248 20.216 63.758 20.44 63.352 20.58L64.64 21.63C68.322 19.74 68.532 17.052 68.532 13.398H66.936ZM73.306 10.71C73.082 10.766 72.452 10.808 72.13 10.808H64.304C63.758 10.808 63.184 10.752 62.666 10.682V12.236C63.268 12.194 63.758 12.152 64.304 12.152H71.99C71.584 12.95 70.352 14.336 69.134 15.05L70.296 15.988C71.794 14.924 73.124 13.146 73.726 12.124C73.838 11.956 74.062 11.69 74.188 11.536L73.306 10.71Z" fill="white"/>
</svg>
