<svg width="84" height="30" viewBox="0 0 84 30" fill="none" xmlns="http://www.w3.org/2000/svg">
<path d="M0 2C0 0.89543 0.895431 0 2 0H82C83.1046 0 84 0.895431 84 2V28C84 29.1046 83.1046 30 82 30H2C0.895433 30 0 29.1046 0 28V2Z" fill="#0091DE"/>
<path d="M15.6368 13.1011H16.0358C16.4978 13.1011 16.8078 13.1531 16.9658 13.2571C17.1248 13.3621 17.2028 13.5421 17.2028 13.7971C17.2028 14.0521 17.1158 14.2171 16.9478 14.3191C16.7798 14.4211 16.4648 14.4691 16.0058 14.4691H15.6368V13.1011Z" fill="white"/>
<path d="M17.2208 17.0101C17.0378 17.1211 16.7258 17.1751 16.2878 17.1751H15.6368V15.6901H16.3148C16.7648 15.6901 17.0768 15.7471 17.2418 15.8611C17.4068 15.9751 17.4938 16.1731 17.4938 16.4611C17.4938 16.7491 17.4038 16.9021 17.2178 17.0131L17.2208 17.0101Z" fill="white"/>
<path fill-rule="evenodd" clip-rule="evenodd" d="M13.557 7.5H22.443C24.1313 7.5 25.5 8.86867 25.5 10.557V19.443C25.5 21.1313 24.1313 22.5 22.443 22.5H13.557C11.8687 22.5 10.5 21.1313 10.5 19.443V10.557C10.5 8.86867 11.8687 7.5 13.557 7.5ZM18.8468 15.2431C18.5748 14.9391 18.1968 14.7691 17.7128 14.7331C18.1448 14.6161 18.4568 14.4451 18.6548 14.2141C18.8528 13.9831 18.9488 13.6801 18.9488 13.2931C18.9537 13.0096 18.8855 12.7296 18.7508 12.4801C18.6145 12.2441 18.415 12.0508 18.1748 11.9221C17.9558 11.8021 17.6948 11.7151 17.3888 11.6641C17.0828 11.6131 16.5458 11.5921 15.7778 11.5921H13.9088V18.4081H15.8348C16.6088 18.4081 17.1668 18.3821 17.5088 18.3301C17.8508 18.2761 18.1358 18.1861 18.3668 18.0631C18.6447 17.9191 18.8734 17.6956 19.0238 17.4211C19.1768 17.1451 19.2548 16.8241 19.2548 16.4581C19.2548 15.9511 19.1198 15.5461 18.8468 15.2431ZM21.2284 16.6828C21.0575 16.6828 20.8905 16.7335 20.7484 16.8285C20.6063 16.9234 20.4956 17.0583 20.4302 17.2162C20.3648 17.3741 20.3477 17.5478 20.381 17.7154C20.4144 17.883 20.4967 18.037 20.6175 18.1578C20.7383 18.2786 20.8923 18.3609 21.0599 18.3942C21.2275 18.4276 21.4012 18.4105 21.5591 18.3451C21.7169 18.2797 21.8519 18.1689 21.9468 18.0269C22.0418 17.8848 22.0924 17.7177 22.0924 17.5468C22.0924 17.3177 22.0014 17.0979 21.8394 16.9359C21.6773 16.7739 21.4576 16.6828 21.2284 16.6828ZM21.979 11.5921H20.479V16.1377H21.979V11.5921Z" fill="white"/>
<path d="M34.254 10.164C34.24 10.528 34.184 10.962 34.142 11.312C33.974 12.418 33.526 15.05 33.526 17.122C33.526 18.998 33.792 20.552 34.072 21.518L35.304 21.434C35.29 21.266 35.29 21.056 35.276 20.916C35.276 20.748 35.304 20.468 35.346 20.286C35.5 19.572 35.976 18.158 36.34 17.122L35.626 16.562C35.416 17.066 35.122 17.738 34.926 18.312C34.856 17.808 34.828 17.346 34.828 16.856C34.828 15.372 35.248 12.488 35.5 11.368C35.556 11.116 35.682 10.542 35.78 10.304L34.254 10.164ZM41.282 18.774C41.282 19.642 40.96 20.16 39.938 20.16C39.056 20.16 38.44 19.838 38.44 19.194C38.44 18.62 39.07 18.214 39.994 18.214C40.442 18.214 40.862 18.284 41.282 18.396V18.774ZM45.328 19.404C44.628 18.774 43.76 18.06 42.612 17.598C42.57 16.534 42.486 15.288 42.458 13.902C43.256 13.846 44.04 13.762 44.754 13.65V12.292C44.04 12.432 43.27 12.53 42.458 12.6C42.472 11.97 42.486 11.382 42.5 11.032C42.514 10.752 42.542 10.458 42.584 10.178H41.002C41.058 10.444 41.086 10.822 41.086 11.06C41.086 11.41 41.1 11.998 41.1 12.684C40.708 12.698 40.33 12.712 39.938 12.712C39.112 12.712 38.342 12.67 37.544 12.6L37.558 13.916C38.37 13.958 39.126 14 39.924 14C40.316 14 40.708 13.986 41.1 13.972C41.128 15.05 41.184 16.24 41.226 17.206C40.876 17.15 40.498 17.122 40.106 17.122C38.258 17.122 37.152 18.074 37.152 19.348C37.152 20.678 38.244 21.462 40.12 21.462C42.052 21.462 42.668 20.37 42.668 19.082V19.04C43.312 19.432 43.942 19.95 44.586 20.552L45.328 19.404ZM47.662 11.564L47.816 13.09C49.356 12.768 52.758 12.432 53.976 12.292C52.842 13.02 51.624 14.7 51.624 16.786C51.624 19.852 54.48 21.308 57.196 21.448L57.7 19.95C55.404 19.852 53.052 19.012 53.052 16.492C53.052 14.854 54.27 12.88 56.118 12.334C56.846 12.138 58.036 12.124 58.806 12.124V10.724C57.854 10.752 56.468 10.836 54.984 10.948C52.436 11.172 49.972 11.41 48.95 11.494C48.684 11.522 48.208 11.55 47.662 11.564ZM72.704 11.144C72.424 10.626 71.948 9.8 71.598 9.296L70.66 9.688C70.954 10.122 71.318 10.71 71.584 11.228C71.36 11.256 71.136 11.256 70.968 11.256H64.178C63.716 11.256 63.058 11.214 62.666 11.158V12.712C63.016 12.698 63.576 12.67 64.178 12.67H71.052C70.87 13.944 70.268 15.736 69.302 16.968C68.154 18.424 66.572 19.628 63.828 20.3L65.032 21.616C67.566 20.818 69.33 19.474 70.59 17.822C71.738 16.324 72.382 14.112 72.69 12.684C72.76 12.404 72.83 12.096 72.942 11.872L72.172 11.368L72.704 11.144ZM72.522 9.324C72.9 9.814 73.348 10.626 73.656 11.2L74.608 10.78C74.328 10.262 73.81 9.422 73.474 8.932L72.522 9.324Z" fill="white"/>
</svg>
