<svg width="98" height="30" viewBox="0 0 98 30" fill="none" xmlns="http://www.w3.org/2000/svg">
<path d="M0 2C0 0.89543 0.895431 0 2 0H96C97.1046 0 98 0.895431 98 2V28C98 29.1046 97.1046 30 96 30H2C0.89543 30 0 29.1046 0 28V2Z" fill="#48AAE6"/>
<path d="M14.7406 22.1493C21.3488 22.1493 24.962 16.8327 24.962 12.2251C24.962 12.0732 24.962 11.9213 24.9546 11.7766C25.6549 11.2847 26.2658 10.6699 26.75 9.96824C26.1093 10.2431 25.4165 10.4312 24.6864 10.518C25.4314 10.084 25.9976 9.40404 26.2658 8.58667C25.5729 8.9845 24.8056 9.27384 23.9861 9.43297C23.3305 8.75303 22.3992 8.3335 21.3637 8.3335C19.382 8.3335 17.7728 9.89591 17.7728 11.82C17.7728 12.0949 17.8026 12.3625 17.8696 12.6157C14.8822 12.471 12.2374 11.0822 10.4643 8.97004C10.1589 9.48361 9.9801 10.084 9.9801 10.7205C9.9801 11.9285 10.6133 12.999 11.5818 13.6211C10.9933 13.6066 10.442 13.4475 9.95775 13.1871C9.95775 13.2016 9.95775 13.216 9.95775 13.2305C9.95775 14.9231 11.1944 16.3264 12.8409 16.6519C12.5429 16.7315 12.2225 16.7749 11.8947 16.7749C11.6638 16.7749 11.4403 16.7532 11.2168 16.7098C11.6712 18.0986 12.9973 19.104 14.5693 19.133C13.34 20.0661 11.7904 20.623 10.1067 20.623C9.8162 20.623 9.5331 20.6086 9.25 20.5724C10.8219 21.5706 12.7142 22.1493 14.7406 22.1493Z" fill="white"/>
<path d="M38.482 10.304L37.124 10.766C37.502 11.55 38.286 13.664 38.524 14.504L39.91 14.014C39.658 13.174 38.818 10.99 38.482 10.304ZM43.144 10.836C42.892 12.796 42.08 15.19 40.932 16.646C39.518 18.438 37.39 19.754 35.43 20.314L36.648 21.546C38.636 20.832 40.694 19.404 42.15 17.486C43.298 15.96 44.068 13.874 44.488 12.222C44.558 11.97 44.656 11.592 44.782 11.298L43.144 10.836ZM34.59 11.158L33.19 11.662C33.554 12.334 34.492 14.658 34.772 15.554L36.186 15.036C35.85 14.098 34.982 11.984 34.59 11.158ZM54.97 13.986C56.384 13.076 57.7 11.984 58.708 10.976L57.518 9.898C56.734 10.906 55.278 12.152 53.864 13.034C52.31 14 49.944 15.036 47.55 15.582L48.348 16.94C50.084 16.45 51.946 15.666 53.416 14.882V19.866C53.416 20.44 53.374 21.21 53.332 21.518H55.068C54.998 21.21 54.97 20.44 54.97 19.866V13.986ZM62.372 16.478C62.834 16.45 63.66 16.422 64.444 16.422H72.06C72.676 16.422 73.306 16.464 73.614 16.478V14.756C73.278 14.784 72.732 14.84 72.046 14.84H64.444C63.688 14.84 62.82 14.798 62.372 14.756V16.478ZM87.498 16.044C86.098 15.358 83.424 14.364 81.576 13.804V11.62C81.576 11.13 81.632 10.514 81.674 10.052H79.952C80.036 10.528 80.078 11.172 80.078 11.62V19.712C80.078 20.258 80.036 21.014 79.966 21.504H81.688C81.618 21 81.576 20.146 81.576 19.712V15.386C83.116 15.89 85.384 16.772 86.868 17.57L87.498 16.044Z" fill="white"/>
</svg>
